<svg width="41" height="40" viewBox="0 0 41 40" fill="none" xmlns="http://www.w3.org/2000/svg">
    <path fill-rule="evenodd" clip-rule="evenodd"
        d="M20.4694 2.078C23.7214 0.0219998 28.0414 -0.546 31.7734 0.65C39.8914 3.268 42.4114 12.118 40.1574 19.16C36.6794 30.22 21.8254 38.47 21.1954 38.816C20.9714 38.94 20.7234 39.002 20.4754 39.002C20.2274 39.002 19.9814 38.942 19.7574 38.82C19.1314 38.478 4.3854 30.35 0.7914 19.162L0.7894 19.16C-1.4666 12.116 1.0454 3.264 9.1554 0.65C12.9634 -0.582 17.1134 -0.0400002 20.4694 2.078ZM10.0754 3.506C3.5134 5.622 1.8654 12.68 3.6474 18.246C6.4514 26.97 17.5294 34.024 20.4734 35.77C23.4274 34.006 34.5854 26.874 37.2994 18.254C39.0814 12.682 37.4274 5.624 30.8554 3.506C27.6714 2.484 23.9574 3.106 21.3934 5.09C20.8574 5.502 20.1134 5.51 19.5734 5.102C16.8574 3.06 13.3094 2.462 10.0754 3.506ZM28.9354 7.4778C31.6614 8.3598 33.5714 10.7738 33.8054 13.6278C33.8714 14.4538 33.2574 15.1778 32.4314 15.2438C32.3894 15.2478 32.3494 15.2498 32.3074 15.2498C31.5334 15.2498 30.8774 14.6558 30.8134 13.8718C30.6814 12.2278 29.5814 10.8398 28.0154 10.3338C27.2254 10.0778 26.7934 9.2318 27.0474 8.4458C27.3054 7.6578 28.1434 7.2298 28.9354 7.4778Z"
        fill="currentColor" />
</svg>