<svg width="40" height="39" viewBox="0 0 40 39" fill="none" xmlns="http://www.w3.org/2000/svg">
    <path
        d="M12.5596 0.00138889C13.8196 0.0397082 15.0396 0.259708 16.2216 0.661708H16.3396C16.4196 0.699708 16.4796 0.741708 16.5196 0.779708C16.9616 0.921708 17.3796 1.08171 17.7796 1.30171L18.5396 1.64171C18.8396 1.80171 19.1996 2.09971 19.3996 2.22171C19.5996 2.33971 19.8196 2.46171 19.9996 2.59971C22.2216 0.901708 24.9196 -0.0182918 27.6996 0.00138889C28.9616 0.00138889 30.2216 0.179708 31.4196 0.581708C38.8016 2.98171 41.4616 11.0817 39.2396 18.1617C37.9796 21.7797 35.9196 25.0817 33.2216 27.7797C29.3596 31.5197 25.1216 34.8397 20.5596 37.6997L20.0596 38.0017L19.5396 37.6797C14.9616 34.8397 10.6996 31.5197 6.8016 27.7597C4.1216 25.0617 2.0596 21.7797 0.779598 18.1617C-1.4804 11.0817 1.1796 2.98171 8.6416 0.539708C9.2216 0.339708 9.8196 0.199708 10.4196 0.121708H10.6596C11.2216 0.0397082 11.7796 0.00138889 12.3396 0.00138889H12.5596ZM30.3796 6.32171C29.5596 6.03971 28.6596 6.48171 28.3596 7.32171C28.0796 8.16171 28.5196 9.08171 29.3596 9.37971C30.6416 9.85971 31.4996 11.1217 31.4996 12.5197V12.5817C31.4616 13.0397 31.5996 13.4817 31.8796 13.8217C32.1596 14.1617 32.5796 14.3597 33.0196 14.4017C33.8396 14.3797 34.5396 13.7217 34.5996 12.8797V12.6417C34.6596 9.83971 32.9616 7.30171 30.3796 6.32171Z"
        fill="currentColor" />
</svg>