<svg width="39" height="38" viewBox="0 0 39 38" fill="none" xmlns="http://www.w3.org/2000/svg">
    <path fill-rule="evenodd" clip-rule="evenodd"
        d="M19.4998 3.5C19.3178 3.5 18.8698 3.55 18.6318 4.026L14.9798 11.328C14.4018 12.482 13.2878 13.284 11.9998 13.468L3.82383 14.646C3.28383 14.724 3.09983 15.124 3.04383 15.292C2.99383 15.454 2.91383 15.866 3.28583 16.222L9.19783 21.902C10.1398 22.808 10.5678 24.114 10.3438 25.392L8.95183 33.412C8.86583 33.914 9.17983 34.206 9.31983 34.306C9.46783 34.418 9.86383 34.64 10.3538 34.384L17.6638 30.594C18.8158 30 20.1878 30 21.3358 30.594L28.6438 34.382C29.1358 34.636 29.5318 34.414 29.6818 34.306C29.8218 34.206 30.1358 33.914 30.0498 33.412L28.6538 25.392C28.4298 24.114 28.8578 22.808 29.7998 21.902L35.7118 16.222C36.0858 15.866 36.0058 15.452 35.9538 15.292C35.8998 15.124 35.7158 14.724 35.1758 14.646L26.9998 13.468C25.7138 13.284 24.5998 12.482 24.0218 11.326L20.3658 4.026C20.1298 3.55 19.6818 3.5 19.4998 3.5ZM9.89383 37.5C9.06783 37.5 8.24783 37.24 7.54583 36.728C6.33383 35.84 5.73983 34.374 5.99783 32.898L7.38983 24.878C7.44183 24.58 7.33983 24.278 7.11983 24.066L1.20783 18.386C0.119832 17.344 -0.270168 15.804 0.189832 14.374C0.653832 12.928 1.88183 11.894 3.39583 11.678L11.5718 10.5C11.8878 10.456 12.1598 10.262 12.2958 9.986L15.9498 2.682C16.6238 1.336 17.9838 0.5 19.4998 0.5C21.0158 0.5 22.3758 1.336 23.0498 2.682L26.7058 9.984C26.8438 10.262 27.1138 10.456 27.4278 10.5L35.6038 11.678C37.1178 11.894 38.3458 12.928 38.8098 14.374C39.2698 15.804 38.8778 17.344 37.7898 18.386L31.8778 24.066C31.6578 24.278 31.5578 24.58 31.6098 24.876L33.0038 32.898C33.2598 34.376 32.6658 35.842 31.4518 36.728C30.2218 37.63 28.6198 37.752 27.2618 37.044L19.9558 33.258C19.6698 33.11 19.3278 33.11 19.0418 33.258L11.7358 37.046C11.1518 37.35 10.5218 37.5 9.89383 37.5Z"
        fill="currentColor" />
</svg>